<svg xmlns="http://www.w3.org/2000/svg"  viewBox="0 0 80 80" width="40px" height="40px"><path fill="#8bb7f0" d="M8,75.5c-1.9,0-3.5-1.6-3.5-3.5V8c0-1.9,1.6-3.5,3.5-3.5h64c1.9,0,3.5,1.6,3.5,3.5v64 c0,1.9-1.6,3.5-3.5,3.5H8z"/><path fill="#4e7ab5" d="M72,5c1.7,0,3,1.3,3,3v64c0,1.7-1.3,3-3,3H8c-1.7,0-3-1.3-3-3V8c0-1.7,1.3-3,3-3H72 M72,4H8 C5.8,4,4,5.8,4,8v64c0,2.2,1.8,4,4,4h64c2.2,0,4-1.8,4-4V8C76,5.8,74.2,4,72,4L72,4z"/><path fill="#fff" d="M33.9 56.3L19.9 42.2 24.1 38 33.9 47.8 58.6 23.1 62.9 27.3z"/></svg>